<?xml version="1.0" encoding="UTF-8" standalone="no"?>
<!-- Created with Inkscape (http://www.inkscape.org/) -->

<svg
   width="176.03064mm"
   height="261.33597mm"
   viewBox="0 0 176.03064 261.33597"
   version="1.1"
   id="svg1"
   xml:space="preserve"
   xmlns="http://www.w3.org/2000/svg"
   xmlns:svg="http://www.w3.org/2000/svg"><defs
     id="defs1" /><g
     id="layer1"
     transform="translate(-19.084094,-33.144229)"><g
       style="fill:#082a64;fill-opacity:1"
       id="g1"
       transform="matrix(8.8194444,0,0,8.8194444,-1.379943,47.076389)"><path
         id="path1"
         style="color:#000000;fill:#082a64;fill-opacity:1;stroke-linecap:round;stroke-linejoin:round;-inkscape-stroke:none"
         d="m 12.000021,-1.5797093 c -2.0490664,0 -3.6796878,1.76692179 -3.6796878,3.8789062 0,1.0761249 0.4585244,2.0194252 1.0664063,2.8613672 0.6078818,0.841942 1.3752615,1.6129099 2.1171675,2.4042769 0.268752,0.286322 0.723416,0.286322 0.992168,0 0.741907,-0.791367 1.509346,-1.5623349 2.117227,-2.4042769 0.607882,-0.841942 1.066405,-1.7852423 1.066406,-2.8613672 0,-2.11198441 -1.630621,-3.8789062 -3.679687,-3.8789062 z M 2.9697277,3.3196657 C 2.6061363,3.3362427 2.3199828,3.6360287 2.3203332,3.9999977 V 17.000017 c -5.212e-4,0.25776 0.1446619,0.493682 0.375,0.609375 l 3.785332,1.892637 C 6.5293104,19.171485 6.6603098,18.891709 6.8358605,18.683767 6.9401796,18.545574 7.0668601,18.434175 7.206466,18.34199 L 3.6797082,16.580076 V 5.1015602 l 1.0156055,0.507832 C 5.0318201,5.7782565 5.4414897,5.6417 5.6093762,5.3047047 5.7782405,4.9681983 5.641684,4.5585287 5.3046887,4.3906422 L 3.3047082,3.3906227 C 3.2009229,3.3388003 3.0856111,3.3143745 2.9697277,3.3196657 Z m 9.0302933,-3.54000001 c 1.264726,0 2.320312,1.0969028 2.320312,2.51953121 0,0.6911818 -0.291478,1.3482648 -0.808594,2.0644922 -0.389435,0.5393838 -0.95917,1.1239343 -1.511718,1.7109375 C 11.447472,5.4876234 10.877738,4.9030729 10.488302,4.3636891 9.9711863,3.6474617 9.6797082,2.9903787 9.6797082,2.2991969 c 0,-1.42262841 1.0555858,-2.51953121 2.3203128,-2.51953121 z m 7.559121,5.53992191 c -0.243096,0.014452 -0.459926,0.157739 -0.568535,0.3757031 -0.168864,0.3365062 -0.03231,0.7461758 0.304687,0.9140625 l 1.625039,0.8105859 V 18.393787 c 0,0.86514 0.02343,1.385493 0.02343,2.147483 0.450685,0.211609 1.334965,-0.04336 1.335948,-0.541253 V 6.9999977 c 5.21e-4,-0.2577599 -0.144662,-0.4936824 -0.375,-0.609375 L 19.904669,5.3906032 C 19.79774,5.3369639 19.678558,5.3124686 19.559142,5.3195876 Z M 12.000021,1.4202907 c -0.375238,3.456e-4 -0.679342,0.3044496 -0.679688,0.6796875 3.46e-4,0.3752379 0.30445,0.6793419 0.679688,0.6796875 h 0.0098 c 0.3752,-3.782e-4 0.679268,-0.3044727 0.679614,-0.6796875 -3.46e-4,-0.3752379 -0.30445,-0.6793419 -0.679688,-0.6796875 z" /></g><g
       style="fill:#082a64;fill-opacity:1"
       id="g2"
       transform="matrix(4.815906,0,0,4.4144942,-13.123177,114.30694)"><path
         d="m 36.30494,40.814017 h -12 c -0.6,0 -1,-0.4 -1,-1 0,-1.5 -0.7,-2.4 -1.8,-3.8 -0.6,-0.7 -1.3,-1.6 -2,-2.7 -1.9,-3 -3.6,-6.6 -4,-7.9 -0.4,-1.3 -0.1,-2.2 0.3,-2.7 0.4,-0.6 1.2,-0.9 2.1,-0.9 1.2,0 2.4,1 3.5,2.3 v -10.3 c 0,-1.7 1.3,-3 3,-3 1.7,0 3,1.3 3,3 v 4.2 c 0.3,-0.1 0.6,-0.2 1,-0.2 1.1,0 2,0.6 2.5,1.4 0.4,-0.3 0.9,-0.4 1.4,-0.4 1.4,0 2.5,0.9 2.9,2.2 0.3,-0.1 0.7,-0.2 1.1,-0.2 1.7,0 3,1.3 3,3 v 3 c 0,2.6 -0.5,4.7 -1,6.7 -0.5,2 -1,3.9 -1,6.3 0,0.6 -0.4,1 -1,1 z m -11.1,-2 h 10.1 c 0.1,-2.2 0.6,-4 1,-5.8 0.5,-2 1,-3.9 1,-6.2 v -3 c 0,-0.6 -0.4,-1 -1,-1 -0.6,0 -1,0.4 -1,1 v 1 c 0,0.6 -0.4,1 -1,1 -0.6,0 -1,-0.4 -1,-1 v -3 c 0,-0.6 -0.4,-1 -1,-1 -0.6,0 -1,0.4 -1,1 v 2 c 0,0.6 -0.4,1 -1,1 -0.6,0 -1,-0.4 -1,-1 v -3 c 0,-0.6 -0.4,-1 -1,-1 -0.6,0 -1,0.4 -1,1 v 2 c 0,0.6 -0.4,1 -1,1 -0.6,0 -1,-0.4 -1,-1 v -9 c 0,-0.6 -0.4,-1 -1,-1 -0.6,0 -1,0.4 -1,1 v 15 c 0,0.6 -0.4,1 -1,1 -0.6,0 -1,-0.4 -1,-1 v -0.8 c -0.9,-2.3 -2.8,-4.2 -3.5,-4.2 -0.2,0 -0.4,0 -0.5,0.1 -0.1,0.1 -0.1,0.4 0,0.9 0.3,1.1 1.8,4.3 3.8,7.5 0.6,1 1.2,1.7 1.8,2.5 1.1,1.2 2.1,2.3 2.3,4 z"
         id="path1-2"
         style="font-variation-settings:normal;opacity:1;vector-effect:none;fill:#082a64;fill-opacity:1;stroke-width:1;stroke-linecap:butt;stroke-linejoin:miter;stroke-miterlimit:4;stroke-dasharray:none;stroke-dashoffset:0;stroke-opacity:1;-inkscape-stroke:none;stop-color:#000000;stop-opacity:1" /></g><path
       id="path45-9"
       style="color:#000000;fill:#082a64;fill-opacity:1;stroke-linecap:round;stroke-linejoin:round;-inkscape-stroke:none"
       d="m 103.3632,122.11141 c -26.619249,0 -48.314363,21.69304 -48.314364,48.3123 10e-7,13.70438 5.759603,26.09352 14.971696,34.89864 1.025944,-0.12052 2.05651,-0.19947 3.081466,-0.19947 4.128908,0 7.620305,1.47408 10.873755,3.38016 v -5.8074 c -10.938532,-6.56566 -18.231445,-18.53535 -18.231446,-32.27193 10e-7,-20.83926 16.779639,-37.61683 37.618893,-37.61683 20.83926,0 37.61734,16.77757 37.61734,37.61683 0,7.67071 -2.27961,14.78699 -6.19187,20.72328 0.94774,0.64001 1.83802,1.34932 2.67012,2.11253 1.70549,-0.39687 3.44429,-1.37976 4.99453,-1.37976 1.38087,0 2.67873,0.18866 3.93361,0.46354 3.37242,-6.58581 5.28908,-14.03289 5.28908,-21.91959 0,-26.61926 -21.69356,-48.31231 -48.31281,-48.3123 z m 0,17.36328 c -17.034329,0 -30.95108,13.91468 -30.951082,30.94902 10e-7,9.70718 4.523409,18.39728 11.563635,24.08121 v -16.00367 c -1.027401,-2.48318 -1.598869,-5.20916 -1.598869,-8.07754 10e-7,-11.64891 9.337413,-20.98425 20.986316,-20.98425 11.64891,0 20.98425,9.33534 20.98425,20.98425 0,0.24454 -0.028,0.48154 -0.0362,0.72398 0.041,2.15759 -0.005,2.71877 -0.005,4.14342 v 12.46746 c 1.30562,0.0762 6.11384,0.62487 7.29398,0.92465 2.67821,-5.41374 3.2413,-11.59541 3.2413,-18.25951 0,-17.03434 -14.44437,-30.94902 -31.4787,-30.94902 z" /></g></svg>
